<svg width="364" height="118" viewBox="0 0 364 118" fill="none" xmlns="http://www.w3.org/2000/svg">
<g clip-path="url(#clip0_312_1653)">
<path d="M28.2743 50.5556H73.3515V73.7684H28.2743V115.474H0V2.52588H83.5362V25.7387H28.2743V50.5371V50.5556Z" fill="#001418"/>
<path d="M175.216 92.7959C172.22 107.196 154.369 118 137.879 118C106.001 118 86.9922 93.0356 86.9922 58.9262C86.9922 24.8169 106.001 0 141.335 0C172.109 0 189.225 18.3269 191.909 39.9725H163.634C161.594 32.2288 156.41 23.2313 140.857 23.2313C122.326 23.2313 115.267 37.76 115.267 58.9262C115.267 80.0925 122.326 94.7872 141.96 94.7872C154.994 94.7872 164.094 86.8959 164.407 75.9809H147.677V57.5987H195.438V108.505H175.179V92.7959H175.216Z" fill="#001418"/>
<path d="M276.897 44.545C274.857 32.2288 269.213 23.2128 254.285 23.2128C235.589 23.2128 229.32 37.7416 229.32 58.9078C229.32 80.0741 235.607 94.7688 254.285 94.7688C269.36 94.7688 275.004 85.7712 276.897 73.1231H305.172C302.653 99.6547 286.328 117.982 255.554 117.982C220.054 117.982 201.064 93.0172 201.064 58.9078C201.064 24.7984 220.054 0 255.554 0C286.181 0 302.506 18.3269 305.172 44.545H276.897Z" fill="#001418"/>
<path d="M364 73.75H318.04V118H364V73.75Z" fill="#001418"/>
</g>
<defs>
<clipPath id="clip0_312_1653">
<rect width="364" height="118" fill="white"/>
</clipPath>
</defs>
</svg>
